<svg xmlns="http://www.w3.org/2000/svg"  viewBox="0 0 64 64" width="64px" height="64px"><linearGradient id="zolna6YLUkZtOLelTOkQ1a" x1="12" x2="12" y1="11.167" y2="17" gradientUnits="userSpaceOnUse" spreadMethod="reflect"><stop offset="0" stop-color="#6dc7ff"/><stop offset="1" stop-color="#e6abff"/></linearGradient><path fill="url(#zolna6YLUkZtOLelTOkQ1a)" d="M12 12A2 2 0 1 0 12 16A2 2 0 1 0 12 12Z"/><linearGradient id="zolna6YLUkZtOLelTOkQ1b" x1="12" x2="12" y1="29" y2="34.5" gradientUnits="userSpaceOnUse" spreadMethod="reflect"><stop offset="0" stop-color="#6dc7ff"/><stop offset="1" stop-color="#e6abff"/></linearGradient><path fill="url(#zolna6YLUkZtOLelTOkQ1b)" d="M12 30A2 2 0 1 0 12 34A2 2 0 1 0 12 30Z"/><linearGradient id="zolna6YLUkZtOLelTOkQ1c" x1="12" x2="12" y1="46.833" y2="53.009" gradientUnits="userSpaceOnUse" spreadMethod="reflect"><stop offset="0" stop-color="#6dc7ff"/><stop offset="1" stop-color="#e6abff"/></linearGradient><path fill="url(#zolna6YLUkZtOLelTOkQ1c)" d="M12 48A2 2 0 1 0 12 52A2 2 0 1 0 12 48Z"/><linearGradient id="zolna6YLUkZtOLelTOkQ1d" x1="31.562" x2="31.562" y1="7.167" y2="57.68" gradientUnits="userSpaceOnUse" spreadMethod="reflect"><stop offset="0" stop-color="#1a6dff"/><stop offset="1" stop-color="#c822ff"/></linearGradient><path fill="url(#zolna6YLUkZtOLelTOkQ1d)" d="M25.802,19.303C26.34,19.752,27.023,20,27.725,20H39c1.654,0,3-1.346,3-3v-6 c0-1.654-1.346-3-3-3H27.725c-0.702,0-1.385,0.248-1.922,0.696l-3.599,2.999c-0.686,0.572-1.08,1.412-1.08,2.305 s0.394,1.733,1.08,2.305L25.802,19.303z M40,11v6c0,0.551-0.449,1-1,1h-1.184C37.928,17.686,38,17.352,38,17v-6 c0-0.352-0.072-0.686-0.184-1H39C39.551,10,40,10.449,40,11z M23.484,13.231l3.599-2.999C27.263,10.083,27.491,10,27.725,10H35 c0.551,0,1,0.449,1,1v6c0,0.551-0.449,1-1,1h-7.275c-0.234,0-0.462-0.083-0.642-0.232l-3.599-2.999 c-0.313-0.261-0.36-0.594-0.36-0.769S23.171,13.492,23.484,13.231z"/><linearGradient id="zolna6YLUkZtOLelTOkQ1e" x1="12" x2="12" y1="7.167" y2="57.68" gradientUnits="userSpaceOnUse" spreadMethod="reflect"><stop offset="0" stop-color="#1a6dff"/><stop offset="1" stop-color="#c822ff"/></linearGradient><path fill="url(#zolna6YLUkZtOLelTOkQ1e)" d="M12,8c-3.309,0-6,2.691-6,6s2.691,6,6,6s6-2.691,6-6S15.309,8,12,8z M12,18 c-2.206,0-4-1.794-4-4s1.794-4,4-4s4,1.794,4,4S14.206,18,12,18z"/><linearGradient id="zolna6YLUkZtOLelTOkQ1f" x1="35.562" x2="35.562" y1="7.167" y2="57.68" gradientUnits="userSpaceOnUse" spreadMethod="reflect"><stop offset="0" stop-color="#1a6dff"/><stop offset="1" stop-color="#c822ff"/></linearGradient><path fill="url(#zolna6YLUkZtOLelTOkQ1f)" d="M25.802,37.303C26.34,37.752,27.023,38,27.725,38H47c1.654,0,3-1.346,3-3v-6 c0-1.654-1.346-3-3-3H27.725c-0.702,0-1.385,0.248-1.922,0.696l-3.599,2.999c-0.686,0.572-1.08,1.412-1.08,2.305 s0.394,1.733,1.08,2.305L25.802,37.303z M48,29v6c0,0.551-0.449,1-1,1h-1.184C45.928,35.686,46,35.352,46,35v-6 c0-0.352-0.072-0.686-0.184-1H47C47.551,28,48,28.449,48,29z M23.484,31.231l3.599-2.999C27.263,28.083,27.491,28,27.725,28H43 c0.551,0,1,0.449,1,1v6c0,0.551-0.449,1-1,1H27.725c-0.234,0-0.462-0.083-0.642-0.232l-3.599-2.999 c-0.313-0.261-0.36-0.594-0.36-0.769S23.171,31.492,23.484,31.231z"/><linearGradient id="zolna6YLUkZtOLelTOkQ1g" x1="12" x2="12" y1="7.167" y2="57.68" gradientUnits="userSpaceOnUse" spreadMethod="reflect"><stop offset="0" stop-color="#1a6dff"/><stop offset="1" stop-color="#c822ff"/></linearGradient><path fill="url(#zolna6YLUkZtOLelTOkQ1g)" d="M12,26c-3.309,0-6,2.691-6,6s2.691,6,6,6s6-2.691,6-6S15.309,26,12,26z M12,36 c-2.206,0-4-1.794-4-4s1.794-4,4-4s4,1.794,4,4S14.206,36,12,36z"/><linearGradient id="zolna6YLUkZtOLelTOkQ1h" x1="39.562" x2="39.562" y1="7.167" y2="57.68" gradientUnits="userSpaceOnUse" spreadMethod="reflect"><stop offset="0" stop-color="#1a6dff"/><stop offset="1" stop-color="#c822ff"/></linearGradient><path fill="url(#zolna6YLUkZtOLelTOkQ1h)" d="M55,44H27.725c-0.702,0-1.385,0.248-1.922,0.696l-3.599,2.999 c-0.686,0.572-1.08,1.412-1.08,2.305s0.394,1.733,1.08,2.305l3.598,2.998C26.34,55.752,27.023,56,27.725,56H55c1.654,0,3-1.346,3-3 v-6C58,45.346,56.654,44,55,44z M27.725,54c-0.234,0-0.462-0.083-0.642-0.232l-3.599-2.999c-0.313-0.261-0.36-0.594-0.36-0.769 s0.047-0.508,0.36-0.769l3.599-2.999C27.263,46.083,27.491,46,27.725,46H51c0.551,0,1,0.449,1,1v6c0,0.551-0.449,1-1,1H27.725z M56,53c0,0.551-0.449,1-1,1h-1.184C53.928,53.686,54,53.352,54,53v-6c0-0.352-0.072-0.686-0.184-1H55c0.551,0,1,0.449,1,1V53z"/><linearGradient id="zolna6YLUkZtOLelTOkQ1i" x1="12" x2="12" y1="7.167" y2="57.68" gradientUnits="userSpaceOnUse" spreadMethod="reflect"><stop offset="0" stop-color="#1a6dff"/><stop offset="1" stop-color="#c822ff"/></linearGradient><path fill="url(#zolna6YLUkZtOLelTOkQ1i)" d="M12,44c-3.309,0-6,2.691-6,6s2.691,6,6,6s6-2.691,6-6S15.309,44,12,44z M12,54 c-2.206,0-4-1.794-4-4s1.794-4,4-4s4,1.794,4,4S14.206,54,12,54z"/></svg>