<svg xmlns="http://www.w3.org/2000/svg"  viewBox="0 0 48 48" width="240px" height="240px" baseProfile="basic"><path fill="#fca66c" d="M47.588,15.191l-11-8l-0.002,0.003c-0.073-0.053-0.15-0.1-0.237-0.132C36.122,6.979,30.726,5,24,5	S11.878,6.979,11.651,7.062c-0.087,0.032-0.164,0.08-0.237,0.132l-0.002-0.003l-11,8c-0.425,0.309-0.538,0.894-0.26,1.338l5,8	C5.341,24.832,5.666,25,6.001,25c0.15,0,0.303-0.034,0.446-0.105L11,22.618V41c0,1.654,1.346,3,3,3h20c1.654,0,3-1.346,3-3V22.618	l4.553,2.276C41.696,24.966,41.849,25,41.999,25c0.335,0,0.66-0.168,0.849-0.47l5-8C48.126,16.085,48.013,15.5,47.588,15.191z"/><path fill="#324561" d="M24,10c-3.196,0-5.902-1.464-6.734-3.644c-0.196-0.516,0.062-1.094,0.578-1.291	c0.514-0.197,1.094,0.061,1.291,0.578C19.655,7.009,21.702,8,24,8s4.345-0.991,4.865-2.356c0.197-0.517,0.78-0.774,1.291-0.578	c0.516,0.197,0.774,0.774,0.578,1.291C29.902,8.536,27.196,10,24,10z"/></svg>