<svg xmlns="http://www.w3.org/2000/svg"  viewBox="0 0 48 48" width="96px" height="96px"><circle cx="20.571" cy="34.143" r="5.143" fill="#f55376"/><circle cx="27.429" cy="34.143" r="5.143" fill="#f55376"/><path fill="#f55376" d="M3,32h2c0,2,1.5,4,4,4c5.25,0,6.429-7,11.571-7c0,2.143,5.143,1.714,5.143,5.143	c0,4.286-4.714,6.857-12,6.857C7,41,3,38.5,3,32z"/><path fill="#f55376" d="M45,32h-2c0,2-1.5,4-4,4c-5.25,0-6.429-7-11.571-7c0,2.143-5.143,1.714-5.143,5.143	c0,4.286,4.714,6.857,12,6.857C41,41,45,38.5,45,32z"/><ellipse cx="24" cy="34.143" fill="#eb0000" rx="1.714" ry="3.808"/><circle cx="13.5" cy="18.5" r="8.5" fill="#6c19ff"/><circle cx="34.5" cy="18.5" r="8.5" fill="#6c19ff"/><circle cx="34.5" cy="18.5" r="5.5" fill="#2100c4"/><circle cx="13.5" cy="18.5" r="5.5" fill="#2100c4"/><rect width="10" height="4" x="19" y="13" fill="#6c19ff"/></svg>